<svg xmlns="http://www.w3.org/2000/svg" width="90" height="12" viewBox="0 0 90 12" fill="none">
  <path d="M0.666667 6C0.666667 8.94552 3.05448 11.3333 6 11.3333C8.94552 11.3333 11.3333 8.94552 11.3333 6C11.3333 3.05448 8.94552 0.666666 6 0.666667C3.05448 0.666667 0.666666 3.05448 0.666667 6ZM90 6L80 0.226497L80 11.7735L90 6ZM6 7L7 7L7 5L6 5L6 7ZM9 7L11 7L11 5L9 5L9 7ZM13 7L15 7L15 5L13 5L13 7ZM17 7L19 7L19 5L17 5L17 7ZM21 7L23 7L23 5L21 5L21 7ZM25 7L27 7L27 5L25 5L25 7ZM29 7L31 7L31 5L29 5L29 7ZM33 7L35 7L35 5L33 5L33 7ZM37 7L39 7L39 5L37 5L37 7ZM41 7L43 7L43 5L41 5L41 7ZM45 7L47 7L47 5L45 5L45 7ZM49 7L51 7L51 5L49 5L49 7ZM53 7L55 7L55 5L53 5L53 7ZM57 7L59 7L59 5L57 5L57 7ZM61 7L63 7L63 5L61 5L61 7ZM65 7L67 7L67 5L65 5L65 7ZM69 7L71 7L71 5L69 5L69 7ZM73 7L75 7L75 5L73 5L73 7ZM77 7L79 7L79 5L77 5L77 7ZM81 7L83 7L83 5L81 5L81 7ZM85 7L87 7L87 5L85 5L85 7Z" fill="#6E71CC"/>
</svg>